<svg width="32" height="32" viewBox="0 0 32 32" fill="none" xmlns="http://www.w3.org/2000/svg">
<rect width="32" height="32" rx="4" fill="#303030"/>
<path d="M21.4516 7.57422L20.2289 6.64084C20.0378 6.4861 19.7933 6.41303 19.5487 6.4375C19.304 6.46196 19.0788 6.582 18.9222 6.77152L2 26.2045L2.26135 26.4938L6.45222 22.6296C6.31255 22.5734 6.19699 22.4701 6.12561 22.3375C6.05423 22.205 6.03155 22.0516 6.0615 21.904C6.09145 21.7565 6.17215 21.6241 6.28957 21.5299C6.40698 21.4356 6.5537 21.3855 6.70423 21.3882C6.83998 21.3882 6.97215 21.4317 7.08134 21.5124C7.19054 21.593 7.27101 21.7065 7.31093 21.8363L12.8365 16.712C12.9212 16.6438 13.0265 16.6066 13.1352 16.6066C13.2439 16.6066 13.3493 16.6438 13.4339 16.712L13.7139 16.9173C13.8086 16.9852 13.9254 17.0152 14.0411 17.0014C14.1568 16.9876 14.2632 16.931 14.3393 16.8427L21.5636 8.74095C21.6404 8.66052 21.699 8.5645 21.7354 8.45942C21.7717 8.35434 21.7851 8.24266 21.7744 8.13197C21.7638 8.02128 21.7295 7.91418 21.6738 7.81794C21.6181 7.7217 21.5423 7.63858 21.4516 7.57422V7.57422Z" fill="white"/>
<path d="M29.4051 13.0439C25.7019 15.6789 21.5534 17.6235 17.1592 18.7842C12.7979 19.8934 8.33519 20.5564 3.83984 20.763C3.93036 21.4259 4.09311 22.0769 4.3252 22.7044C6.86399 25.0005 25.9796 21.0803 29.7131 16.5441C30.5065 15.6014 29.4051 13.0439 29.4051 13.0439ZM6.70532 22.6298C6.57979 22.6298 6.45707 22.5925 6.3527 22.5228C6.24832 22.453 6.16697 22.3539 6.11893 22.2379C6.07089 22.122 6.05832 21.9944 6.08281 21.8712C6.1073 21.7481 6.16775 21.635 6.25652 21.5463C6.34528 21.4575 6.45838 21.397 6.58149 21.3726C6.70461 21.3481 6.83223 21.3606 6.94821 21.4087C7.06418 21.4567 7.16331 21.5381 7.23305 21.6424C7.30279 21.7468 7.34002 21.8695 7.34002 21.9951C7.34128 22.0788 7.32572 22.1618 7.29427 22.2394C7.26282 22.317 7.21611 22.3875 7.15692 22.4467C7.09773 22.5058 7.02726 22.5526 6.94969 22.584C6.87211 22.6155 6.78902 22.631 6.70532 22.6298V22.6298Z" fill="white"/>
</svg>
