<svg width="24" height="24" viewBox="0 0 24 24" fill="none" xmlns="http://www.w3.org/2000/svg">
<path fill-rule="evenodd" clip-rule="evenodd" d="M4.8 5.5C4.07277 5.5 3.5 6.07683 3.5 6.75V17.25C3.5 17.9232 4.07277 18.5 4.8 18.5H19.2C19.9272 18.5 20.5 17.9232 20.5 17.25V6.75C20.5 6.07683 19.9272 5.5 19.2 5.5H4.8ZM2.5 6.75C2.5 5.49817 3.54723 4.5 4.8 4.5H19.2C20.4528 4.5 21.5 5.49817 21.5 6.75V17.25C21.5 18.5018 20.4528 19.5 19.2 19.5H4.8C3.54723 19.5 2.5 18.5018 2.5 17.25V6.75Z" fill="#9DA4BD"/>
<path fill-rule="evenodd" clip-rule="evenodd" d="M3.62372 5.67075C3.80556 5.46294 4.12144 5.44188 4.32926 5.62372L12 12.3356L19.6708 5.62372C19.8786 5.44188 20.1945 5.46294 20.3763 5.67075C20.5581 5.87857 20.5371 6.19445 20.3293 6.3763L12.3293 13.3763C12.1407 13.5412 11.8593 13.5412 11.6708 13.3763L3.67075 6.3763C3.46294 6.19445 3.44188 5.87857 3.62372 5.67075Z" fill="#9DA4BD"/>
</svg>
