<svg aria-hidden="true" style="position: absolute; width: 0; height: 0; overflow: hidden;" version="1.1" xmlns="http://www.w3.org/2000/svg" xmlns:xlink="http://www.w3.org/1999/xlink">
<defs>
<symbol id="logo" viewBox="0 0 69 56">
<path d="m39.1496 16.87-1.31-1c-.2048-.1657-.4667-.244-.7288-.2178-.2622.0262-.5034.1548-.6712.3578l-18.13 20.82.28.31 4.49-4.14c-.1497-.0602-.2735-.1709-.3499-.3129-.0765-.142-.1008-.3064-.0687-.4644.0321-.1581.1185-.3.2443-.4009.1258-.101.283-.1547.4443-.1518.1454 0 .287.0466.404.133.117.0864.2032.208.246.347l5.92-5.49c.0906-.073.2035-.1128.32-.1128.1164 0 .2293.0398.32.1128l.3.22c.1015.0728.2265.1049.3505.0901.124-.0148.238-.0755.3195-.1701l7.74-8.68c.0822-.0861.145-.189.184-.3016.0389-.1126.0532-.2322.0418-.3508-.0114-.1186-.0481-.2333-.1078-.3364-.0597-.1032-.1409-.1922-.238-.2612Z"/>
<path d="M47.6703 22.73c-3.9675 2.823-8.4122 4.9064-13.12 6.15-4.6726 1.1883-9.4538 1.8986-14.27 2.12.097.7102.2713 1.4077.52 2.08 2.72 2.46 23.2-1.74 27.2-6.6.85-1.01-.33-3.75-.33-3.75ZM23.3503 33c-.1345 0-.266-.0399-.3778-.1146-.1118-.0747-.199-.1809-.2505-.3052-.0514-.1243-.0649-.261-.0387-.3929.0263-.1319.091-.2531.1861-.3482.0951-.0951.2163-.1598.3482-.1861.1319-.0262.2686-.0127.3929.0387.1243.0515.2305.1387.3052.2505.0747.1118.1146.2433.1146.3778.0013.0897-.0153.1787-.049.2618-.0337.0831-.0838.1586-.1472.222-.0634.0634-.1389.1135-.222.1472-.0831.0337-.1722.0503-.2618.049ZM4.0003 21.2899l.16-.69 2.6.59c.2145.3962.34713.8315.39 1.28.04963.4751.01921.9551-.09 1.42-.12945.6453-.42599 1.2453-.86 1.74-.41291.4671-.94533.8129-1.54 1-.61291.189-1.26479.2132-1.89.07-.62658-.1353-1.20413-.4396-1.67-.88-.458731-.423-.788135-.9673-.950001-1.57-.1795654-.6545-.1795654-1.3454 0-2 .107478-.4899.300427-.957.57-1.38.255139-.3846.597841-.7034 1.000001-.93l.36.55c-.3447.2117-.64058.494-.86812.8284-.227537.3344-.381554.7133-.451881 1.1116-.124013.5174-.113686 1.0578.03 1.57.13437.4864.400901.926.770001 1.27.37938.3668.85403.6197 1.37.73.50033.1405 1.02967.1405 1.53 0 .47929-.1582.90977-.4371 1.25-.81.34964-.4026.5906-.888.7-1.41.16453-.6331.12249-1.3023-.12-1.91l-2.29-.58ZM9.65992 15.0001l-2.33 3.11 1 1.79-.46.62-3.7-6.75.43-.59 7.52998 1.62-.47.62-1.99998-.42Zm-.66-.16-4-.9 2 3.59 2-2.69ZM9 8.54998l.6-.45L13.41 13.2l3.14-2.35.38.51-3.73 2.79L9 8.54998ZM15.2998 4.37996l.67-.3 2.64 5.78 3.57-1.62.26.58-4.24 1.93004-2.9-6.37004ZM28.48 6.68003l.15.63-4.82 1.13-1.6-6.82L26.89.530029l.14.620001-4 .93.57 2.42 3.52-.83.15.62-3.53.82.6 2.53 4.14-.96ZM35.3498 6.92997l-1.67-2.2c-.1865.01032-.3734.01032-.56 0l-1.88.06.07 2.22h-.74l-.23-7.00000134 2.66-.01c.7521-.06945806 1.5042.13275234 2.12.57000034.2596.208993.4682.474211.6103.775631.142.30142.2138.63118.2097.96437.0292.49419-.1004.98476-.37 1.4-.2873.39856-.6933.69606-1.16.85l1.75 2.34-.81.03Zm-.7-3.29c.1798-.16466.3193-.36843.4077-.59558.0884-.22714.1234-.47158.1023-.71442.0052-.24413-.0452-.48623-.1474-.70799-.1023-.22176-.2536-.41737-.4426-.57201-.4609-.312522-1.0151-.457263-1.57-.410001l-1.9.07.12 3.500001 1.86-.06c.5672.02099 1.1235-.15971 1.57-.51ZM40.6396 5.07l-.36 2.39-.73-.11.37-2.35-2.07-5 .78.12 1.77 4.26 3-3.53.7.15-3.46 4.07ZM50.5298 4.65005l.87 1.13-.38.3-.87-1.16-.55 1.31-.42-.18.56-1.31-1.44.19v-.48l1.42-.16-.88-1.13.39-.3.77 1.14.54-1.32.43.18-.51 1.34 1.44-.2v.49l-1.37.16ZM53.8704 12.71c-.2361-.364-.3834-.7785-.43-1.21l.59-.26c.0443.3964.1739.7785.38 1.12.2234.383.5149.7219.86 1 .3565.3413.8113.5617 1.3.63.1766.0164.3545-.0106.5183-.0785.1638-.068.3086-.1749.4217-.3115.083-.0915.1462-.1991.1858-.316.0395-.117.0546-.2409.0442-.364-.033-.2437-.1147-.4783-.24-.69-.1879-.3069-.3915-.604-.61-.89-.2662-.3488-.5068-.7164-.72-1.1-.1629-.28704-.2522-.60997-.26-.93996-.0007-.37058.1386-.72774.39-1 .218-.26387.5055-.46135.83-.57.3626-.10473.7474-.10473 1.11 0 .4672.15278.899.39759 1.27.72.3079.25607.5803.55201.81.88.2125.30416.3714.64235.47.99996l-.57.3c-.0994-.3333-.2477-.65009-.44-.93996-.1915-.25886-.4169-.49091-.67-.69-.3511-.33976-.8046-.55417-1.29-.61-.1784-.01492-.3577.01474-.5217.08631-.1641.07157-.3078.1828-.4183.32369-.085.09009-.1496.19749-.1893.31485-.0397.11737-.0536.24192-.0407.36515.0234.25217.1056.49534.24.70996.14.23.34.53.61.89.2677.3408.5084.7019.72 1.08.1664.2862.2592.6092.27.94.0007.3706-.1386.7278-.39 1-.2187.2675-.5106.4656-.84.57-.3619.1093-.748.1093-1.11 0-.4703-.1523-.9055-.3971-1.28-.72-.4036-.3513-.7421-.771-1-1.24ZM63.9297 14.17l-1.41-2 .52-.37 3.25 4.64-.52.37-1.41-2-5.22 3.65-.42-.61 5.21-3.68ZM61.6902 22.39c.1785-.6044.5254-1.1455 1-1.56.4643-.4159 1.03-.7021 1.64-.83.6219-.1428 1.2705-.1186 1.88.07.5884.1945 1.1157.5392 1.53 1 .4308.4956.7239 1.0956.85 1.74.1657.6326.1657 1.2973 0 1.93-.1834.6021-.5294 1.1419-1 1.56-.4771.427-1.0567.7233-1.6823.86-.6256.1367-1.2759.1091-1.8877-.08-.5928-.1851-1.1225-.5313-1.53-1-.4288-.493-.7218-1.0893-.85-1.73-.1527-.6467-.1355-1.322.05-1.96Zm1.31 3.18c.3339.3802.7666.6606 1.25.81.4983.1445 1.025.1617 1.5316.0498.5067-.1118.9772-.349 1.3684-.6898.3691-.3396.6417-.7709.79-1.25.1395-.5059.1531-1.0383.0398-1.5507-.1133-.5124-.3501-.9893-.6898-1.3893-.3485-.3821-.7945-.6621-1.29-.81-.5046-.134-1.0354-.134-1.54 0-.5091.0977-.9804.3368-1.36.69-.3725.3408-.6455.7762-.79 1.26-.1358.5077-.1358 1.0422 0 1.55.1095.4961.3475.9547.69 1.33ZM60.9302 34l2.59-1c0-.18.06-.36.11-.55l.49-1.81-2.12-.55.19-.71 6.76 1.81-.68 2.53c-.1531.7382-.5644 1.3977-1.16 1.86-.2736.1901-.5875.3142-.9171.3628-.3296.0486-.666.0202-.9829-.0828-.4825-.1047-.915-.3708-1.2259-.7544-.3109-.3836-.4816-.8618-.4841-1.3556l-2.76 1 .19-.75Zm3.35.28c.1172.2125.2761.3992.4672.5487.1911.1495.4105.2589.645.3215.2344.0626.4791.0771.7194.0427.2402-.0344.471-.117.6784-.2429.4414-.3545.7426-.8542.85-1.41l.48-1.8-3.39-.91-.48 1.8c-.1845.5364-.1738 1.1207.03 1.65ZM57.3401 40.44l-.51-.39 3-3.95 5.58 4.23-2.9 3.83-.51-.39 2.45-3.23-2-1.51-2.19 2.89-.5-.38 2.24-2.89-2.07-1.57-2.59 3.36ZM55.0003 48.41l-1.43.08v-.48l1.43-.01-.77-1.19.39-.25.76 1.2.62-1.34.43.23-.68 1.26 1.43-.08v.49h-1.45l.77 1.19-.39.25-.76-1.2-.66 1.3-.42-.24.73-1.21ZM42.0002 47.61l1.21.67c.2029-.3896.486-.7319.8307-1.0043.3448-.2723.7433-.4685 1.1693-.5757.3975-.1239.8155-.1681 1.23-.13.3597.0276.7053.152 1 .36.2665.2009.4625.4809.56.8.1206.3948.0993.8193-.06 1.2-.2509.5174-.5892.9876-1 1.39.3297.1772.6355.3956.91.65.1886.1949.329.4312.41.69.0513.2018.0545.4128.0093.616-.0452.2032-.1374.393-.2693.554-.2669.3847-.6652.6585-1.12.77-.3993.1523-.8407.1523-1.24 0-.1775-.0763-.335-.1928-.4599-.3403-.1249-.1475-.2139-.322-.2601-.5097-.1048-.3301-.0798-.6877.07-1 .2296-.4546.53-.8698.89-1.23l-2.41-1.34c-.0919.471-.1122.9531-.06 1.43h-.61c-.041-.5873.0268-1.1772.2-1.74l-1.26-.7.26-.56Zm1.74 1 2.65 1.47c.3473-.3316.6349-.7207.85-1.15.1099-.2899.1099-.61 0-.9-.0453-.1732-.133-.3325-.2552-.4634-.1222-.1309-.2751-.2294-.4448-.2866-.4151-.1402-.8648-.1402-1.28 0-.3392.0895-.6547.2523-.9242.4769-.2696.2246-.4866.5056-.6358.8231l.04.03Zm3.76 4c.0654-.1105.1063-.2337.1201-.3613.0138-.1276.0001-.2568-.0401-.3787-.0612-.1974-.1713-.3763-.32-.52-.2545-.2147-.533-.3992-.83-.55-.3032.2998-.5685.6357-.79 1-.1209.2272-.1495.4923-.08.74.0318.1145.0874.2209.1632.3122.0759.0914.1702.1656.2768.2178.2546.096.5354.096.79 0 .2719-.0725.5093-.239.67-.47l.04.01ZM29.8096 55.3199l.14-7h.71l-.11 5.6 2.84-4.66h.35l2.66 4.74.1-5.57h.71l-.13 7h-.61l-2.94-5.23-3.11 5.13-.61-.01ZM26.33 48c.4573.4358.7845.9901.9452 1.601.1607.611.1485 1.2546-.0352 1.859-.1643.6189-.4925 1.182-.95 1.63-.4446.437-1.0021.7417-1.61.88-.6413.1447-1.3089.124-1.94-.06-.629-.1536-1.2077-.4671-1.68-.91-.4505-.4303-.7725-.9773-.93-1.58-.1538-.6231-.1424-1.2754.0329-1.8927.1754-.6173.5087-1.1782.9671-1.6273.4367-.4359.9823-.7467 1.58-.9.638-.1443 1.3022-.1237 1.93.06.6355.161 1.218.485 1.69.94Zm-3.41-.35c-.4892.1139-.9363.3634-1.29.72-.3684.3669-.6309.8263-.76 1.33-.1395.5004-.1395 1.0295 0 1.53.1179.4869.371.9306.73 1.28.3765.3682.8414.6333 1.35.77.5085.1295 1.0414.1295 1.55 0 .4895-.1204.9382-.3689 1.3-.72.3664-.3684.6286-.8273.76-1.33.1398-.5038.1398-1.0362 0-1.54-.128-.4851-.3835-.9271-.74-1.28-.3785-.3687-.8477-.6309-1.36-.76-.5039-.1393-1.0361-.1393-1.54 0ZM15.3495 43l.27 2.75c.1716.0733.3385.1568.5.25l1.63.94 1.1-1.94.65.37-3.5 6.03-2.28-1.31c-.6739-.3385-1.2055-.9056-1.5-1.6-.1087-.3128-.1453-.6461-.1072-.9751.0381-.329.1499-.6451.3272-.9249.2325-.4382.601-.7892 1.05-1 .4561-.1889.9606-.2274 1.44-.11l-.29-2.94.71.46Zm-1.14 3.16c-.2348.059-.4554.1647-.6485.3108-.193.1462-.3546.3298-.475.5399-.1205.21-.1973.4422-.2259.6827-.0286.2404-.0084.4842.0594.7166.2345.5176.6408.9381 1.15 1.19l1.61.93 1.75-3-1.61-.93c-.4627-.3467-1.0325-.5201-1.61-.49v.05ZM9.43 38.31l.45-.45 3.45 3.55-5 4.88L5 42.85l.46-.45 2.83 2.91L10 43.58 7.52 41l.48-.46 2.53 2.6 1.86-1.81-2.96-3.02ZM2.00035 34.38l.24-1.38.47.07-.27 1.42 1.33-.49.16.44-1.35.46 1.11.94-.32.36-1.07-1-.25 1.42-.48-.09.28-1.42-1.339998.48-.15-.39 1.339998-.47-1.109998-.93.33-.36 1.079998.94Z"></path>
</symbol>
<symbol id="instagram" viewBox="0 0 20 20">
<path d="M19.9804 5.88005c-.0468-1.06267-.2187-1.79325-.4648-2.42631-.254-.67198-.6447-1.2736-1.1566-1.77372-.5001-.50792-1.1057-.902585-1.7699-1.152573-.6367-.246173-1.3635-.41802-2.4261-.4648738C13.0924.0117516 12.7525 0 10.0371 0 7.32173 0 6.98185.0117516 5.91521.0586052 4.85253.105459 4.12195.277459 3.48904.523479 2.81692.777435 2.2153 1.16814 1.71517 1.68002c-.50791.50012-.902427 1.10571-1.152567 1.7699C.31643 4.0868.144583 4.81341.0977294 5.87609.0469078 6.9467.0351562 7.28658.0351562 10.002c0 2.7153.0117516 3.0552.0586052 4.1219.0468536 1.0626.2188536 1.7932.4650256 2.4263.253956.6719.648473 1.2736 1.156383 1.7737.50013.5079 1.10571.9026 1.76991 1.1526.63687.2461 1.36348.418 2.42631.4648 1.06649.047 1.40652.0586 4.12191.0586 2.7154 0 3.0552-.0116 4.1219-.0586 1.0627-.0468 1.7932-.2187 2.4261-.4648 1.3441-.5197 2.4068-1.5824 2.9265-2.9263.246-.6369.418-1.3637.4649-2.4263.0468-1.0667.0586-1.4066.0586-4.1219 0-2.71542-.004-3.0553-.0509-4.12195Zm-1.801 8.16565c-.043.9768-.2071 1.5042-.3438 1.8558-.3361.8713-1.0276 1.5628-1.8989 1.8989-.3516.1368-.8829.3008-1.8558.3437-1.0549.047-1.3713.0586-4.0398.0586-2.66855 0-2.98889-.0116-4.03997-.0586-.97675-.0429-1.5042-.2069-1.85583-.3437-.43359-.1602-.82826-.4142-1.1486-.7463-.3321-.3243-.58605-.715-.7463-1.1486-.13675-.3516-.30081-.883-.34369-1.8558-.04701-1.0549-.05861-1.3714-.05861-4.04 0-2.66848.0116-2.98883.05861-4.03975.04288-.97676.20694-1.5042.34369-1.85583.16025-.43374.4142-.82826.75027-1.14876.32416-.33209.71486-.58605 1.1486-.74615.35163-.13674.88304-.30081 1.85583-.34384 1.05489-.04686 1.37142-.05861 4.0398-.05861 2.6725 0 2.9888.01175 4.0399.05861.9768.04303 1.5042.2071 1.8559.34384.4335.1601.8282.41406 1.1486.74615.332.32431.586.71502.7463 1.14876.1367.35163.3008.88289.3438 1.85583.0469 1.05489.0586 1.37127.0586 4.03975 0 2.6686-.0117 2.9811-.0586 4.036Z"/>
<path d="M10.0371 4.86414c-2.83636 0-5.13769 2.30117-5.13769 5.13776 0 2.8365 2.30133 5.1377 5.13769 5.1377 2.8366 0 5.1378-2.3012 5.1378-5.1377 0-2.83659-2.3012-5.13776-5.1378-5.13776Zm0 8.47046c-1.84008 0-3.33268-1.4925-3.33268-3.3327 0-1.84031 1.4926-3.33276 3.33268-3.33276 1.8403 0 3.3327 1.49245 3.3327 3.33276 0 1.8402-1.4924 3.3327-3.3327 3.3327ZM16.5777 4.6611c0 .66236-.537 1.19942-1.1996 1.19942-.6623 0-1.1994-.53706-1.1994-1.19942 0-.66252.5371-1.19943 1.1994-1.19943.6626 0 1.1996.53691 1.1996 1.19943Z"/>
</symbol>
<symbol id="twitter" viewBox="0 0 20 20">
<path d="M20 3.79875c-.7437.32625-1.5363.5425-2.3625.6475.85-.5075 1.4988-1.305 1.8037-2.26625-.7924.4725-1.6674.80625-2.6.9925-.7525-.80125-1.825-1.2975-2.995-1.2975-2.2699 0-4.09745 1.8425-4.09745 4.10125 0 .325.0275.6375.095.935-3.40875-.16625-6.425-1.8-8.45125-4.28875-.35375.61375-.56125 1.31625-.56125 2.0725 0 1.42.73125 2.67875 1.82125 3.4075C1.99375 8.09 1.3475 7.89875.8 7.5975v.045c0 1.9925 1.42125 3.6475 3.285 4.0287-.33375.0913-.6975.135-1.075.135-.2625 0-.5275-.0149-.77625-.07C2.765 13.36 4.2725 14.5538 6.065 14.5925 4.67 15.6838 2.89875 16.3412.98125 16.3412.645 16.3412.3225 16.3263 0 16.285c1.81625 1.1713 3.96875 1.84 6.29 1.84 7.545 0 11.67-6.25 11.67-11.6675 0-.18125-.0062-.35625-.015-.53.8138-.5775 1.4975-1.29875 2.055-2.12875Z"></path>
</symbol>
<symbol id="facebook" viewBox="0 0 20 20">
<path d="M13.3313 3.32083h1.8258V.140833C14.8421.0975 13.7588 0 12.4971 0 9.86458 0 8.06125 1.65583 8.06125 4.69917V7.5h-2.905v3.555h2.905V20h3.56165v-8.9442h2.7875l.4425-3.55497h-3.2308V5.05167c.0008-1.0275.2775-1.73084 1.7092-1.73084Z"></path>
</symbol>
<symbol id="linkedin" viewBox="0 0 20 20">
<path d="M19.9951 20.0001v-.0008h.005v-7.335c0-3.58837-.7725-6.35253-4.9675-6.35253-2.0167 0-3.37 1.10666-3.9225 2.15583h-.0584V6.64677H7.07422V19.9993h4.14168v-6.6117c0-1.7408.33-3.42417 2.4858-3.42417 2.1242 0 2.1559 1.98667 2.1559 3.53587v6.5008h4.1375ZM.330078 6.64746H4.47675V20H.330078V6.64746ZM2.40167 0C1.07583 0 0 1.07583 0 2.40167 0 3.7275 1.07583 4.82583 2.40167 4.82583c1.32583 0 2.40166-1.09833 2.40166-2.42416C4.8025 1.07583 3.72667 0 2.40167 0Z"></path>
</symbol>
<symbol id="pin" viewBox="0 0 24 24">
<path d="M12 3.5c-4.18196 0-7.5 3.11117-7.5 6.8636 0 2.6467 1.86425 5.1795 3.84842 7.1073.97903.9512 1.96008 1.729 2.69718 2.2693.3681.2698.6743.4796.8875.6213.0234.0156.0457.0303.0669.0443.0212-.014.0435-.0287.0669-.0443.2132-.1417.5194-.3515.8875-.6213.7371-.5403 1.7182-1.3181 2.6972-2.2693 1.9842-1.9278 3.8484-4.4606 3.8484-7.1073C19.5 6.61117 16.182 3.5 12 3.5ZM12 21c-.2615.4262-.2616.4261-.2618.426l-.0005-.0003-.0015-.001-.0053-.0032-.0189-.0118c-.0164-.0102-.0401-.0251-.0706-.0446-.0612-.039-.1498-.0963-.262-.1708-.2243-.1491-.5431-.3677-.925-.6476-.76288-.5591-1.78185-1.3666-2.80282-2.3585C5.63575 16.2296 3.5 13.4442 3.5 10.3636 3.5 5.98246 7.34541 2.5 12 2.5c4.6546 0 8.5 3.48246 8.5 7.8636 0 3.0806-2.1358 5.866-4.1516 7.8246-1.021.9919-2.0399 1.7994-2.8028 2.3585-.3819.2799-.7007.4985-.925.6476-.1122.0745-.2008.1318-.262.1708-.0305.0195-.0542.0344-.0706.0446l-.0189.0118-.0053.0032-.0015.001-.0005.0003c-.0002.0001-.0003.0002-.2618-.426Zm0 0 .2615.4262c-.1604.0984-.3626.0984-.523 0L12 21Z"></path>
<path d="M8.5 11c0-1.933 1.567-3.5 3.5-3.5s3.5 1.567 3.5 3.5-1.567 3.5-3.5 3.5-3.5-1.567-3.5-3.5ZM12 8.5c-1.3807 0-2.5 1.11929-2.5 2.5 0 1.3807 1.1193 2.5 2.5 2.5s2.5-1.1193 2.5-2.5c0-1.38071-1.1193-2.5-2.5-2.5Z"></path>
</symbol>
<symbol id="phone" viewBox="0 0 24 24">
<path d="M18.756 21c-.0635 0-.1376 0-.2011-.0106-2.6987-.2959-5.3233-1.226-7.5881-2.6952-2.10603-1.3318-3.92633-3.1603-5.27038-5.2637-1.47106-2.2619-2.40237-4.89368-2.68812-7.58893-.05291-.63417.14817-1.24721.57149-1.71227C4.00312 3.26424 4.60635 3 5.23076 3H7.80245c1.10065 0 2.05313.82443 2.20125 1.91309.1059.78215.2964 1.54316.5715 2.28303.3069.81386.1059 1.73342-.508 2.34645l-.78311.79273c1.07951 1.7757 2.58231 3.266 4.36021 4.3547l.7938-.7928c.6244-.613 1.5451-.8032 2.36-.5073.7408.2748 1.5028.4651 2.2754.5708 1.1324.1585 1.9473 1.1309 1.9261 2.2618v2.5367c0 .6237-.2646 1.2261-.7197 1.6489-.4233.3805-.9736.5919-1.5239.5919ZM7.80245 4.05696H5.23076c-.32808 0-.64557.1374-.86782.3805-.22224.2431-.32807.57076-.30691.89842.27516 2.52613 1.14298 4.98882 2.52937 7.13442 1.25939 1.9766 2.97385 3.6888 4.9529 4.9466 2.1378 1.3846 4.5931 2.2619 7.1224 2.5261.3281.0318.6456-.0845.889-.3065.2434-.2219.381-.539.381-.8667V16.212c.0106-.6131-.4233-1.1204-1.0054-1.205-.8466-.1162-1.6933-.317-2.5082-.6236-.4233-.1585-.9101-.0528-1.2382.2643l-1.0795 1.0781c-.1693.1691-.4339.2008-.635.0845-2.2119-1.2472-4.05331-3.0863-5.3127-5.2953-.11642-.2114-.08467-.4651.08466-.6342l1.07948-1.0781c.31749-.31709.42332-.80329.26458-1.23664-.29633-.80329-.50799-1.64885-.62441-2.50499-.07408-.57076-.57148-1.00411-1.15356-1.00411Z"></path>
</symbol>
<symbol id="mail" viewBox="0 0 24 24">
<path d="M4.8 5.5c-.72723 0-1.3.57683-1.3 1.25v10.5c0 .6732.57277 1.25 1.3 1.25h14.4c.7272 0 1.3-.5768 1.3-1.25V6.75c0-.67317-.5728-1.25-1.3-1.25H4.8ZM2.5 6.75c0-1.25183 1.04723-2.25 2.3-2.25h14.4c1.2528 0 2.3.99817 2.3 2.25v10.5c0 1.2518-1.0472 2.25-2.3 2.25H4.8c-1.25277 0-2.3-.9982-2.3-2.25V6.75Z"></path>
<path d="M3.62372 5.67075c.18184-.20781.49772-.22887.70554-.04703L12 12.3356l7.6708-6.71188c.2078-.18184.5237-.16078.7055.04703.1818.20782.1608.5237-.047.70555l-8 7c-.1886.1649-.47.1649-.6585 0l-8.00005-7c-.20781-.18185-.22887-.49773-.04703-.70555Z"></path>
</symbol>
</defs>
</svg>
